<?xml version="1.0" encoding="utf-8"?>
<!-- Generator: Adobe Illustrator 25.1.0, SVG Export Plug-In . SVG Version: 6.00 Build 0)  -->
<svg version="1.1" id="Layer_1" xmlns="http://www.w3.org/2000/svg" xmlns:xlink="http://www.w3.org/1999/xlink" x="0px" y="0px"
	 viewBox="0 0 79.1 68.6" style="enable-background:new 0 0 79.1 68.6;" xml:space="preserve">
<style type="text/css">
	.st0{fill:#FFF1B3;}
	.st1{fill:#347893;}
	.st2{fill:#FFFFFF;}
	.st3{fill:#8BD7EB;}
	.st4{fill:#6ACCE5;}
	.st5{fill:#B3E5F2;}
	.st6{fill:#FEBE10;}
</style>
<g>
	<circle class="st0" cx="39.3" cy="34.5" r="32.1"/>
	<g>
		<path class="st1" d="M42.1,25.3h-5.4c-0.4,0-0.8-0.3-0.8-0.8c0-0.4,0.3-0.8,0.8-0.8h5.4c0.4,0,0.8,0.3,0.8,0.8
			C42.8,24.9,42.5,25.3,42.1,25.3z"/>
	</g>
	<g>
		<g>
			<g>
				<path class="st2" d="M65.3,55.7c0,1.2-1.9,2.1-3.1,2.1H15.5c-1.2,0-2.8-0.9-2.8-2.1V23.9c0-1.2,0.9-2.1,2.1-2.1h48.3
					c1.2,0,2.1,0.9,2.1,2.1V55.7z"/>
			</g>
			<g>
				<path class="st1" d="M62.2,58.6H15.5c-1.4,0-3.6-1.1-3.6-2.9V23.9c0-1.6,1.3-2.9,2.9-2.9h48.3c1.6,0,2.9,1.3,2.9,2.9v31.8
					C66,57.5,63.5,58.6,62.2,58.6z M14.8,22.6c-0.7,0-1.3,0.6-1.3,1.3v31.8c0,0.6,1.2,1.3,2.1,1.3h46.6c0.9,0,2.3-0.8,2.3-1.3V23.9
					c0-0.7-0.6-1.3-1.3-1.3H14.8z"/>
			</g>
		</g>
		<g>
			<g>
				<path class="st2" d="M8,53.9v1.6c0,2.3,2,4.4,4.6,4.4h52.7c2.6,0,4.9-2.1,4.9-4.4v-1.6H8z"/>
			</g>
			<g>
				<path class="st1" d="M65.3,60.6H12.6c-3,0-5.4-2.3-5.4-5.1v-1.6c0-0.4,0.3-0.8,0.8-0.8h62.2c0.4,0,0.8,0.3,0.8,0.8v1.6
					C71,58.2,68.3,60.6,65.3,60.6z M8.8,54.6v0.8c0,2,1.7,3.6,3.9,3.6h52.7c2.2,0,4.1-1.7,4.1-3.6v-0.8H8.8z"/>
			</g>
		</g>
		<g>
			<g>
				<rect x="16.9" y="27.2" class="st3" width="44.4" height="26.7"/>
			</g>
			<g>
				<path class="st1" d="M61.3,54.6H16.9c-0.4,0-0.8-0.3-0.8-0.8V27.2c0-0.4,0.3-0.8,0.8-0.8h44.4c0.4,0,0.8,0.3,0.8,0.8v26.7
					C62.1,54.3,61.7,54.6,61.3,54.6z M17.7,53.1h42.9V28H17.7V53.1z"/>
			</g>
		</g>
		<g>
			<rect x="57.6" y="28" class="st4" width="3" height="25.1"/>
		</g>
		<g>
			<path class="st1" d="M71.5,60.7H4.3c-0.5,0-0.9-0.4-0.9-0.9S3.8,59,4.3,59h67.2c0.5,0,0.9,0.4,0.9,0.9S71.9,60.7,71.5,60.7z"/>
		</g>
		<g>
			<path class="st1" d="M74.9,60.7h-1.1c-0.5,0-0.9-0.4-0.9-0.9s0.4-0.9,0.9-0.9h1.1c0.5,0,0.9,0.4,0.9,0.9S75.4,60.7,74.9,60.7z"/>
		</g>
	</g>
	<g>
		<path class="st1" d="M42.3,57.3h-9.4c-1.7,0-3-1.2-3.3-3l1.7-0.3c0.1,1,0.7,1.5,1.6,1.5h9.4c0.8,0,1.4-0.6,1.6-1.6l1.7,0.3
			C45.3,56,44,57.3,42.3,57.3z"/>
	</g>
	<g>
		<g>
			<path class="st2" d="M56.7,17.4H42.8c0,0-3-0.4-3.7,2.2c-1.4-2.3-3.9-2.2-3.9-2.2H20.8V47h16.4c0.4,1.1,1.5,1.4,2.1,1.4
				c0.7,0,1.6-0.2,2-1.4h15.2V17.4z"/>
		</g>
		<g>
			<path class="st1" d="M39.4,48.9c-0.5,0-1.9-0.1-2.7-1.4H21.1c-0.5,0-0.9-0.4-0.9-0.9V17.1c0-0.5,0.4-0.9,0.9-0.9l14.1,0
				c0.4,0,2.3,0.1,3.7,1.5c0.8-1,2-1.5,3.5-1.5c0.2,0,0.3,0,0.4,0H57c0.5,0,0.9,0.4,0.9,0.9v29.6c0,0.5-0.4,0.9-0.9,0.9H42
				C41.4,48.5,40.5,48.9,39.4,48.9z M22,45.9h15.3c0.4,0,0.7,0.2,0.8,0.6c0.3,0.7,0.9,0.8,1.3,0.8c0.8,0,1.1-0.4,1.2-0.8
				c0.1-0.3,0.4-0.6,0.8-0.6h14.7V18H42.8c0,0-0.1,0-0.1,0c0,0-0.1,0-0.3,0c-0.9,0-2.1,0.3-2.5,1.6c-0.1,0.3-0.4,0.6-0.7,0.6
				c-0.3,0-0.7-0.1-0.8-0.4c-1-1.7-2.8-1.8-3.1-1.8c0,0-0.1,0-0.1,0H22V45.9z"/>
		</g>
	</g>
	<g>
		<path class="st1" d="M39.4,52.2c-1,0-2.9-0.7-4.3-1.7H22c-0.5,0-0.9-0.4-0.9-0.9c0-0.5,0.4-0.9,0.9-0.9h13.5
			c0.2,0,0.4,0.1,0.5,0.2c1.3,1.1,3,1.6,3.5,1.5c0.6,0,1.5-0.6,2.3-1.1c0.3-0.2,0.6-0.4,0.9-0.6c0.1-0.1,0.3-0.1,0.4-0.1h12.5
			c0.5,0,0.9,0.4,0.9,0.9c0,0.5-0.4,0.9-0.9,0.9H43.3c-0.2,0.1-0.4,0.3-0.7,0.4C41.7,51.4,40.6,52.1,39.4,52.2
			C39.5,52.2,39.5,52.2,39.4,52.2z"/>
	</g>
	<g>
		<path class="st1" d="M39.3,42.7c-0.5,0-0.9-0.4-0.9-0.9V19.1c0-0.5,0.4-0.9,0.9-0.9c0.5,0,0.9,0.4,0.9,0.9v22.8
			C40.2,42.4,39.8,42.7,39.3,42.7z"/>
	</g>
	<g>
		<rect x="25.4" y="21.4" class="st5" width="9.7" height="4.6"/>
	</g>
	<g>
		<rect x="25.4" y="37.3" class="st5" width="9.7" height="4.6"/>
	</g>
	<g>
		<rect x="43" y="26.5" class="st5" width="10.2" height="9.7"/>
	</g>
	<g>
		<path class="st6" d="M33.9,32.4h-8c-0.4,0-0.8-0.3-0.8-0.8c0-0.4,0.3-0.8,0.8-0.8h8c0.4,0,0.8,0.3,0.8,0.8
			C34.7,32.1,34.3,32.4,33.9,32.4z"/>
	</g>
	<g>
		<path class="st6" d="M33.9,29.4h-8c-0.5,0-0.9-0.4-0.9-0.9s0.4-0.9,0.9-0.9h8c0.5,0,0.9,0.4,0.9,0.9S34.4,29.4,33.9,29.4z"/>
	</g>
	<g>
		<path class="st6" d="M52.7,24.8H43c-0.5,0-0.9-0.4-0.9-0.9s0.4-0.9,0.9-0.9h9.7c0.5,0,0.9,0.4,0.9,0.9S53.2,24.8,52.7,24.8z"/>
	</g>
	<g>
		<path class="st6" d="M52.7,22H43c-0.5,0-0.9-0.4-0.9-0.9s0.4-0.9,0.9-0.9h9.7c0.5,0,0.9,0.4,0.9,0.9S53.2,22,52.7,22z"/>
	</g>
	<g>
		<path class="st6" d="M52.7,42.5h-9.1c-0.5,0-0.9-0.4-0.9-0.9c0-0.5,0.4-0.9,0.9-0.9h9.1c0.5,0,0.9,0.4,0.9,0.9
			C53.5,42.1,53.2,42.5,52.7,42.5z"/>
	</g>
	<g>
		<path class="st6" d="M52.7,39.6h-9.1c-0.5,0-0.9-0.4-0.9-0.9c0-0.5,0.4-0.9,0.9-0.9h9.1c0.5,0,0.9,0.4,0.9,0.9
			C53.5,39.2,53.2,39.6,52.7,39.6z"/>
	</g>
	<g>
		<path class="st6" d="M33.9,35.6h-8c-0.5,0-0.9-0.4-0.9-0.9c0-0.5,0.4-0.9,0.9-0.9h8c0.5,0,0.9,0.4,0.9,0.9
			C34.8,35.2,34.4,35.6,33.9,35.6z"/>
	</g>
</g>
</svg>
