<?xml version="1.0" encoding="UTF-8"?>
<svg width="42px" height="47px" viewBox="0 0 42 47" version="1.1" xmlns="http://www.w3.org/2000/svg" xmlns:xlink="http://www.w3.org/1999/xlink">
    <!-- Generator: Sketch 51.3 (57544) - http://www.bohemiancoding.com/sketch -->
    <title>Group 3</title>
    <desc>Created with Sketch.</desc>
    <defs></defs>
    <g id="Page-1" stroke="none" stroke-width="1" fill="none" fill-rule="evenodd">
        <g id="IngramSpark-Log-In" transform="translate(-604.000000, -357.000000)">
            <g id="Group-3" transform="translate(605.000000, 358.000000)">
                <g id="Group-8">
                    <g id="Group-19">
                        <path d="M2.7311522,2.73189189 L28.8,2.73283517" id="Stroke-1" stroke="#FFFFFF" stroke-width="1.5"></path>
                        <g id="Group-18">
                            <polygon id="Stroke-2" stroke="#FFFFFF" stroke-width="1.5" points="4.55192034 44.3285917 30.4978663 44.3285917 30.4978663 5.63726885 4.55192034 5.63726885"></polygon>
                            <path d="M30.2702703,5.63726885 L2.04836415,5.63726885 C0.921763869,5.63726885 0,4.36888336 0,2.81863442 C0,1.26838549 0.921763869,0 2.04836415,0 L30.2702703,0" id="Stroke-4" stroke="#FFFFFF" stroke-width="1.5"></path>
                            <path d="M30.7254623,5.63726885 C29.598862,5.63726885 28.6770982,4.36888336 28.6770982,2.81863442 C28.6770982,1.26838549 29.598862,0 30.7254623,0" id="Stroke-5" stroke="#FFFFFF" stroke-width="1.5"></path>
                            <path d="M4.55192034,44.3285917 L1.82076814,44.3285917 C1.82076814,44.3285917 0,44.7837838 0,42.9630156 L0,3.36130868" id="Stroke-6" stroke="#FFFFFF" stroke-width="1.5"></path>
                            <path d="M36.9436586,44.7837838 L18.1346686,44.7837838 C16.6666743,44.7837838 15.4763471,43.5939118 15.4763471,42.1259175 L15.4763471,13.7574395 C15.4763471,12.2894452 16.6666743,11.0995733 18.1346686,11.0995733 L36.9436586,11.0995733 C38.4116529,11.0995733 39.6015249,12.2894452 39.6015249,13.7574395 L39.6015249,42.1259175 C39.6015249,43.5939118 38.4116529,44.7837838 36.9436586,44.7837838" id="Fill-7" fill="#4E9EB8"></path>
                            <path d="M36.9436586,44.7837838 L18.1346686,44.7837838 C16.6666743,44.7837838 15.4763471,43.5939118 15.4763471,42.1259175 L15.4763471,13.7574395 C15.4763471,12.2894452 16.6666743,11.0995733 18.1346686,11.0995733 L36.9436586,11.0995733 C38.4116529,11.0995733 39.6015249,12.2894452 39.6015249,13.7574395 L39.6015249,42.1259175 C39.6015249,43.5939118 38.4116529,44.7837838 36.9436586,44.7837838 Z" id="Stroke-8" stroke="#FFFFFF" stroke-width="1.5"></path>
                            <path d="M30.9530583,12.4651494 L31.8634424,12.4651494 L30.9530583,12.4651494 Z" id="Fill-9" fill="#FFFFFF"></path>
                            <polygon id="Stroke-10" stroke="#FFFFFF" stroke-width="1.5" points="18.6628734 38.8662873 35.9601707 38.8662873 35.9601707 14.7411095 18.6628734 14.7411095"></polygon>
                            <path d="M21.6216216,18.2972973 L33.1553526,18.2972973" id="Stroke-11" stroke="#FFFFFF" stroke-width="1.5"></path>
                            <path d="M21.6216216,21.5405405 L33.1553526,21.5405405" id="Stroke-12" stroke="#FFFFFF" stroke-width="1.5"></path>
                            <path d="M21.6216216,24.7837838 L33.1553526,24.7837838" id="Stroke-13" stroke="#FFFFFF" stroke-width="1.5"></path>
                            <path d="M21.6216216,28.027027 L33.1553526,28.027027" id="Stroke-14" stroke="#FFFFFF" stroke-width="1.5"></path>
                            <path d="M21.6216216,31.2702703 L33.1553526,31.2702703" id="Stroke-15" stroke="#FFFFFF" stroke-width="1.5"></path>
                            <path d="M21.6216216,34.5135135 L30.0097896,34.5135135" id="Stroke-16" stroke="#FFFFFF" stroke-width="1.5"></path>
                            <path d="M27.311522,42.9630156 C26.5572688,42.9630156 25.9459459,42.3516927 25.9459459,41.5974395 C25.9459459,40.8431863 26.5572688,40.2318634 27.311522,40.2318634 C28.0657752,40.2318634 28.6770982,40.8431863 28.6770982,41.5974395 C28.6770982,42.3516927 28.0657752,42.9630156 27.311522,42.9630156 Z" id="Fill-17" fill="#FFFFFF"></path>
                        </g>
                    </g>
                </g>
            </g>
        </g>
    </g>
</svg>